<svg class="logo" id="Layer_1" data-name="Layer 1" xmlns="http://www.w3.org/2000/svg" viewBox="0 0 213.1 424.2" preserveAspectRatio="xMidYMid"><defs><style>.path{}</style></defs><title>logo</title><path class="path" d="M56.6,268L40.9,359.6,40.4,363l-0.5,3.1-0.5,3.1-0.5,3.1-0.5,2.8-0.5,2.6-0.5,2.6-0.5,2.3-0.5,2.3-0.5,2.1L35.5,389,35,390.8l-0.5,1.5-0.3,1.5-0.5,1.5-0.3,1.3L32.7,399l-0.8,2.1-0.8,1.8-0.8,1.8-0.8,1.5-0.8,1-1,1L27,409l-1.5,1-1.8.8-2.1.8-2.3.5-1.5.3-1.5.3-1.8.3-2.3.3-2.3.3-2.6.3-2.8.3H1L0,424.2l6.7-.3,6.4-.3h6.4l6.4-.3,6.4-.3H70.3l6.2,0.3,6.2,0.3h5.9l5.7,0.3,5.9,0.3,0.3-9.5H97.3l-3.1-.3-2.6-.3H89.1l-2.6-.3-2.3-.3-2.1-.3-2.1-.3-1.8-.3-1.5-.3-1.5-.3-1.5-.3-1-.3-1.3-.3-0.8-.3-0.8-.3-1.5-.8-1-.8-1-1-0.8-1.3L64.9,406l-0.5-1.3-0.3-1.5v-6.2l0.3-1.8v-2.1l0.3-2.3,0.3-2.6,0.3-2.6,0.8-5.7,0.5-5.7,1-5.9,0.8-6.2,15.7-96,7.7-1.5,7.5-1.8,7-2.3,7-2.8,6.4-3.1,6.2-3.3,5.9-4.1,5.7-4.4,2.8-2.3,2.6-2.3,2.3-2.3,2.3-2.6,2.3-2.6,2.1-2.6,2.1-2.6,1.8-2.6,1.5-2.8,1.8-3.3,1.8-3.6,1.5-3.9,1.8-4.1,1.3-4.4,1.3-4.6,1-4.9,1.5,1.5,1.5,1.5,1.5,1.8,1.3,1.8,1,2.1,1,2.1,1,2.1,1,2.3,0.8,2.3,0.5,2.3,0.5,2.6,0.5,2.6,0.5,2.8,0.3,2.8v10l-0.3,3.9-0.3,3.9-0.5,3.9-0.5,3.6-0.8,3.6-0.8,3.3-1,3.6-1,3.1-1.3,3.3-1.5,3.1-1.5,3.1-1.5,3.1-1.8,2.8L166,279l-2.1,2.6-2.3,2.6-2.1,2.6-2.3,2.1-2.3,2.1-2.6,2.1-2.3,1.8-2.6,1.5-2.8,1.3-2.6,1.3-2.8,1-2.8,1-2.8.8-3.1.5-3.1.5-3.1.3h-7l-3.6-.5-3.3-.5-3.3-.5-3.1-1-3.3-1-3.1-1.5-2.8-1.5v11.1l3.1,2.3,3.6,1.8L105,313l4.1,1.3,4.1,1,4.4,0.8,4.6,0.3,4.9,0.3h4.4l4.4-.5,4.4-.5,4.1-.8,4.1-1,4.1-1,3.9-1.5,3.9-1.5,3.6-1.8,3.9-2.3,3.6-2.1,3.3-2.6,3.6-2.8,3.3-2.8,3.1-3.3,3.3-3.3,3.1-3.6,2.8-3.6,2.6-3.6,2.3-3.9,2.3-3.9,2.1-4.1,1.8-4.1,1.8-4.4,1.5-4.1,1-4.4,1.3-4.6,0.8-4.6,0.8-4.6,0.5-4.9,0.3-4.9V217l-0.3-3.3-0.3-3.1-0.5-3.1-0.5-2.8-0.8-2.8-0.8-2.8-1-2.6-1.3-2.6-1.3-2.3-1.3-2.3-1.5-2.3-1.5-2.1-1.8-2.1-2.1-1.8-2.1-1.8-2.8-2.3-3.1-1.8-3.1-1.8-3.3-1.8-3.9-1.3-3.9-1.3-3.9-1.3-4.4-.8-0.5-2.6-0.8-2.3-0.8-2.6-1-2.3-1-2.6-1.3-2.3-1.5-2.3-1.5-2.3-1.8-2.1-1.8-2.1-2.1-2.1-2.3-2.1-2.6-1.8-2.8-1.8-2.8-1.8-3.1-1.8-3.3-1.5-3.6-1.5-4.1-1.5-4.1-1.5-4.6-1.5-4.6-1.5-5.1-1.5-5.4-1.5-2.8-.8-2.3-.8-2.1-.5-1.8-.5-5.1-1.5-4.6-1.8L81.9,112,78,110.2l-3.6-2.1-3.1-2.3-2.8-2.3-2.6-2.3-2.1-2.6L62,95.8l-1.8-3.1L59,89.6,58.2,86l-0.8-3.6-0.5-3.9V71L57.1,68l0.3-3.1,0.3-3.1L58.2,59,59,55.9l0.8-2.6,1-2.8,1-2.6,1-2.6,1.3-2.6,1.5-2.3,1.3-2.3L68.7,36l1.8-2.3,1.8-2.1,2.1-1.8,2.1-1.8,2.1-1.8,2.3-1.5,2.3-1.5,2.3-1.3,2.3-1.3,2.6-1,2.6-.8,2.8-1,2.6-.5,2.8-.8,3.1-.3,2.8-.5h11.8l5.1,0.5,4.6,0.5,4.4,1,4.1,1.3,3.6,1.5,3.1,1.5,2.8,2.1,2.6,2.6,2.3,2.6,1.8,2.8,1.5,3.3,1,3.6,0.8,3.9,0.5,4.4,0.3,4.4v1.8l-0.3,2.1L157,58.2l-0.3,3.1V62l9.5-.3,0.5-5.4,0.5-5.4,0.8-5.7,1-6.2,1-6.2,1.3-6.7,1.8-7,1.8-7.5L169.6,9,164,6.7l-5.9-2.1-6.2-1.8-6.4-1.3-6.7-.8L131.5,0H119.4l-4.9.3-4.6.5-4.6.8-4.4.8-4.4,1L92.2,4.6,88,6.2,83.9,7.7,79.8,9.8l-3.9,2.1-3.9,2.1-3.6,2.6L64.9,19l-3.6,2.8L57.9,25l-3.3,3.1-3.1,3.1-2.8,3.3-2.6,3.6-2.3,3.3L41.4,45l-2.1,3.6-1.8,3.9L36,56.4l-1.3,3.9-1.3,3.9-1,4.1-0.5,4.1-0.5,4.4-0.5,4.1v8.2l0.3,3.6,0.5,3.6,0.5,3.3,0.5,3.1,1,3.3,0.8,2.8,1.3,3.1,1.3,2.8,1.5,2.6,1.5,2.6,1.8,2.6,1.8,2.3,2.1,2.1,2.3,2.3,2.3,2.1,1.3,0.8,1.5,1,1.5,1,1.5,1,2.1,0.8,2.1,1,2.1,1,2.3,1,2.6,1,2.6,0.8,2.8,1,3.1,1,3.1,1,3.3,1,3.3,1,3.6,1,1,0.3,1,0.3,0.5,0.3h0.8l3.9,1.3,3.9,1,3.6,1,3.3,1.3,3.1,1,3.1,1.3,2.8,1,2.6,1.3,3.6,1.8,3.1,2.1,2.8,2.1,2.6,2.3-3.6.3h-3.9l-4.1.3-4.4.3-5.1.3h-4.6l-4.4.3-3.9.3H86.8l-2.6.3-5.7-.3H66.7l-6.2-.3-6.2-.3-6.4-.3-6.4-.3-6.4-.5-0.3,10.6h2.1l1.3,0.3h1.5l3.3,0.3,3.1,0.3,2.8,0.5,2.8,0.5,2.3,0.5,2.3,0.8,2.1,0.8,1.8,1,1.8,1,1.3,1,1.3,1.3,0.8,1.3,0.8,1.5,0.5,1.5,0.5,1.5v5.4l-0.3,4.1-0.3,4.4-0.3,4.4-0.5,4.9-0.8,4.6-0.8,4.9-0.8,4.9-3.9,22.9-3.1-.5-3.1-.8-3.1-.8-3.1-1-3.1-1-2.8-1.3-2.6-1-2.3-1.5-2.1-1.3-1.8-1.5-1.5-1.5-1.3-1.8L29.1,235l-0.8-1.8-0.5-2.1-0.5-2.8-0.5-3.1-0.3-3.3-0.3-3.6v-9.5l0.3-1.8v-4.4l0.3-2.3V198l-11.3.3-0.5,5.9-0.8,5.4-0.5,5.4-0.5,4.6-0.5,4.6-0.5,4.1-0.5,3.9-0.5,3.6-0.5,3.3L10,242l-0.5,2.8L9,247.4l-0.5,2.3L8,251.8l-0.5,1.8L7,255.4l2.3,1.5,2.3,1.3,2.6,1.5,2.8,1,2.6,1.3,3.1,1,3.1,1,3.1,0.8,3.1,0.8,3.3,0.5,3.3,0.5,3.3,0.5,3.6,0.3,3.6,0.3,3.6,0.3h3.9Zm29.9-16.7,2.8-19,0.5-2.3,0.5-2.3,0.3-2.6,0.5-2.8,0.8-2.8,0.5-2.8,0.8-3.1,0.5-3.3,1.5-6.7,1.8-7,1.5-7.5,2.1-7.7,2.3-.5,2.6-.5,2.6-.3,2.8-.5h2.8l3.1-.3,3.1-.3h3.3l4.1,0.3h4.1l4.1,0.5,3.6,0.3,0.8,2.8,0.5,3.1,0.3,2.8v5.9l-0.3,3.1-0.3,2.8-0.8,2.8-1.3,5.7-1.8,5.4-1,2.3-1,2.6-1.3,2.1-1.3,2.3-1.8,3.1-2.3,2.8-2.3,2.8-2.6,2.6-3.6,3.3-3.9,2.8-4.1,2.6-4.6,2.1-4.6,1.8L97,249.2l-5.1,1.3Z"/></svg>
